<svg xmlns="http://www.w3.org/2000/svg" xmlns:xlink="http://www.w3.org/1999/xlink" width="500" zoomAndPan="magnify" viewBox="0 0 375 374.999991" height="500" preserveAspectRatio="xMidYMid meet" version="1.0"><defs><g/></defs><rect x="-37.5" width="450" fill="#ffffff" y="-37.499999" height="449.999989" fill-opacity="1"/><rect x="-37.5" width="450" fill="#292929" y="-37.499999" height="449.999989" fill-opacity="1"/><g fill="#0097b2" fill-opacity="1"><g transform="translate(94.376394, 216.749986)"><g><path d="M 27.890625 -13.09375 C 27.890625 -10.894531 27.550781 -8.910156 26.875 -7.140625 C 26.195312 -5.367188 25.265625 -3.875 24.078125 -2.65625 C 22.898438 -1.445312 21.492188 -0.519531 19.859375 0.125 C 18.222656 0.769531 16.476562 1.09375 14.625 1.09375 C 10.394531 1.09375 7.109375 -0.0546875 4.765625 -2.359375 C 2.429688 -4.671875 1.265625 -7.941406 1.265625 -12.171875 L 1.265625 -17.0625 L 10.640625 -17.0625 L 10.640625 -11.828125 C 10.640625 -10.703125 10.9375 -9.785156 11.53125 -9.078125 C 12.125 -8.378906 12.984375 -8.03125 14.109375 -8.03125 C 16.304688 -8.03125 17.40625 -9.269531 17.40625 -11.75 C 17.40625 -14.050781 16.800781 -16.160156 15.59375 -18.078125 C 14.382812 -19.992188 12.820312 -22.132812 10.90625 -24.5 C 9.832031 -25.6875 8.742188 -26.984375 7.640625 -28.390625 C 6.546875 -29.796875 5.546875 -31.285156 4.640625 -32.859375 C 3.742188 -34.441406 3 -36.09375 2.40625 -37.8125 C 1.8125 -39.53125 1.515625 -41.265625 1.515625 -43.015625 C 1.515625 -44.929688 1.796875 -46.742188 2.359375 -48.453125 C 2.929688 -50.171875 3.78125 -51.691406 4.90625 -53.015625 C 6.03125 -54.347656 7.4375 -55.394531 9.125 -56.15625 C 10.8125 -56.914062 12.8125 -57.296875 15.125 -57.296875 C 18.789062 -57.296875 21.734375 -56.097656 23.953125 -53.703125 C 26.179688 -51.304688 27.296875 -48.109375 27.296875 -44.109375 L 27.296875 -39.203125 L 17.90625 -39.203125 L 17.90625 -44.78125 C 17.90625 -45.800781 17.640625 -46.59375 17.109375 -47.15625 C 16.578125 -47.71875 15.914062 -48 15.125 -48 C 14.332031 -48 13.613281 -47.726562 12.96875 -47.1875 C 12.320312 -46.65625 12 -45.828125 12 -44.703125 C 12 -43.347656 12.148438 -42.148438 12.453125 -41.109375 C 12.765625 -40.066406 13.21875 -39.066406 13.8125 -38.109375 C 14.40625 -37.148438 15.109375 -36.175781 15.921875 -35.1875 C 16.742188 -34.207031 17.632812 -33.066406 18.59375 -31.765625 C 19.71875 -30.421875 20.84375 -29.03125 21.96875 -27.59375 C 23.09375 -26.15625 24.09375 -24.660156 24.96875 -23.109375 C 25.84375 -21.554688 26.546875 -19.945312 27.078125 -18.28125 C 27.617188 -16.625 27.890625 -14.894531 27.890625 -13.09375 Z M 27.890625 -13.09375 "/></g></g></g><g fill="#0097b2" fill-opacity="1"><g transform="translate(121.075592, 216.749986)"><g><path d="M 2.453125 0 L 2.453125 -56.28125 L 25.34375 -56.28125 L 25.34375 -46.734375 L 13.265625 -46.734375 L 13.265625 -33.296875 L 21.203125 -33.296875 L 21.203125 -24.5 L 13.265625 -24.5 L 13.265625 -9.890625 L 25.34375 -9.890625 L 25.34375 0 Z M 2.453125 0 "/></g></g></g><g fill="#0097b2" fill-opacity="1"><g transform="translate(145.32452, 216.749986)"><g><path d="M 27.890625 -13.09375 C 27.890625 -10.894531 27.550781 -8.910156 26.875 -7.140625 C 26.195312 -5.367188 25.265625 -3.875 24.078125 -2.65625 C 22.898438 -1.445312 21.492188 -0.519531 19.859375 0.125 C 18.222656 0.769531 16.476562 1.09375 14.625 1.09375 C 10.394531 1.09375 7.109375 -0.0546875 4.765625 -2.359375 C 2.429688 -4.671875 1.265625 -7.941406 1.265625 -12.171875 L 1.265625 -17.0625 L 10.640625 -17.0625 L 10.640625 -11.828125 C 10.640625 -10.703125 10.9375 -9.785156 11.53125 -9.078125 C 12.125 -8.378906 12.984375 -8.03125 14.109375 -8.03125 C 16.304688 -8.03125 17.40625 -9.269531 17.40625 -11.75 C 17.40625 -14.050781 16.800781 -16.160156 15.59375 -18.078125 C 14.382812 -19.992188 12.820312 -22.132812 10.90625 -24.5 C 9.832031 -25.6875 8.742188 -26.984375 7.640625 -28.390625 C 6.546875 -29.796875 5.546875 -31.285156 4.640625 -32.859375 C 3.742188 -34.441406 3 -36.09375 2.40625 -37.8125 C 1.8125 -39.53125 1.515625 -41.265625 1.515625 -43.015625 C 1.515625 -44.929688 1.796875 -46.742188 2.359375 -48.453125 C 2.929688 -50.171875 3.78125 -51.691406 4.90625 -53.015625 C 6.03125 -54.347656 7.4375 -55.394531 9.125 -56.15625 C 10.8125 -56.914062 12.8125 -57.296875 15.125 -57.296875 C 18.789062 -57.296875 21.734375 -56.097656 23.953125 -53.703125 C 26.179688 -51.304688 27.296875 -48.109375 27.296875 -44.109375 L 27.296875 -39.203125 L 17.90625 -39.203125 L 17.90625 -44.78125 C 17.90625 -45.800781 17.640625 -46.59375 17.109375 -47.15625 C 16.578125 -47.71875 15.914062 -48 15.125 -48 C 14.332031 -48 13.613281 -47.726562 12.96875 -47.1875 C 12.320312 -46.65625 12 -45.828125 12 -44.703125 C 12 -43.347656 12.148438 -42.148438 12.453125 -41.109375 C 12.765625 -40.066406 13.21875 -39.066406 13.8125 -38.109375 C 14.40625 -37.148438 15.109375 -36.175781 15.921875 -35.1875 C 16.742188 -34.207031 17.632812 -33.066406 18.59375 -31.765625 C 19.71875 -30.421875 20.84375 -29.03125 21.96875 -27.59375 C 23.09375 -26.15625 24.09375 -24.660156 24.96875 -23.109375 C 25.84375 -21.554688 26.546875 -19.945312 27.078125 -18.28125 C 27.617188 -16.625 27.890625 -14.894531 27.890625 -13.09375 Z M 27.890625 -13.09375 "/></g></g></g><g fill="#0097b2" fill-opacity="1"><g transform="translate(172.023715, 216.749986)"><g><path d="M 27.890625 -13.09375 C 27.890625 -10.894531 27.550781 -8.910156 26.875 -7.140625 C 26.195312 -5.367188 25.265625 -3.875 24.078125 -2.65625 C 22.898438 -1.445312 21.492188 -0.519531 19.859375 0.125 C 18.222656 0.769531 16.476562 1.09375 14.625 1.09375 C 10.394531 1.09375 7.109375 -0.0546875 4.765625 -2.359375 C 2.429688 -4.671875 1.265625 -7.941406 1.265625 -12.171875 L 1.265625 -17.0625 L 10.640625 -17.0625 L 10.640625 -11.828125 C 10.640625 -10.703125 10.9375 -9.785156 11.53125 -9.078125 C 12.125 -8.378906 12.984375 -8.03125 14.109375 -8.03125 C 16.304688 -8.03125 17.40625 -9.269531 17.40625 -11.75 C 17.40625 -14.050781 16.800781 -16.160156 15.59375 -18.078125 C 14.382812 -19.992188 12.820312 -22.132812 10.90625 -24.5 C 9.832031 -25.6875 8.742188 -26.984375 7.640625 -28.390625 C 6.546875 -29.796875 5.546875 -31.285156 4.640625 -32.859375 C 3.742188 -34.441406 3 -36.09375 2.40625 -37.8125 C 1.8125 -39.53125 1.515625 -41.265625 1.515625 -43.015625 C 1.515625 -44.929688 1.796875 -46.742188 2.359375 -48.453125 C 2.929688 -50.171875 3.78125 -51.691406 4.90625 -53.015625 C 6.03125 -54.347656 7.4375 -55.394531 9.125 -56.15625 C 10.8125 -56.914062 12.8125 -57.296875 15.125 -57.296875 C 18.789062 -57.296875 21.734375 -56.097656 23.953125 -53.703125 C 26.179688 -51.304688 27.296875 -48.109375 27.296875 -44.109375 L 27.296875 -39.203125 L 17.90625 -39.203125 L 17.90625 -44.78125 C 17.90625 -45.800781 17.640625 -46.59375 17.109375 -47.15625 C 16.578125 -47.71875 15.914062 -48 15.125 -48 C 14.332031 -48 13.613281 -47.726562 12.96875 -47.1875 C 12.320312 -46.65625 12 -45.828125 12 -44.703125 C 12 -43.347656 12.148438 -42.148438 12.453125 -41.109375 C 12.765625 -40.066406 13.21875 -39.066406 13.8125 -38.109375 C 14.40625 -37.148438 15.109375 -36.175781 15.921875 -35.1875 C 16.742188 -34.207031 17.632812 -33.066406 18.59375 -31.765625 C 19.71875 -30.421875 20.84375 -29.03125 21.96875 -27.59375 C 23.09375 -26.15625 24.09375 -24.660156 24.96875 -23.109375 C 25.84375 -21.554688 26.546875 -19.945312 27.078125 -18.28125 C 27.617188 -16.625 27.890625 -14.894531 27.890625 -13.09375 Z M 27.890625 -13.09375 "/></g></g></g><g fill="#0097b2" fill-opacity="1"><g transform="translate(198.722917, 216.749986)"><g/></g></g><g fill="#0097b2" fill-opacity="1"><g transform="translate(206.833825, 216.749986)"><g><path d="M 2.453125 0 L 2.453125 -56.28125 L 13.34375 -56.28125 L 13.34375 0 Z M 2.453125 0 "/></g></g></g><g fill="#0097b2" fill-opacity="1"><g transform="translate(220.098762, 216.749986)"><g><path d="M 21.625 0 L 14.453125 -23.0625 L 11.921875 -30.921875 L 11.921875 0 L 2.359375 0 L 2.359375 -56.28125 L 12.34375 -56.28125 L 18.84375 -33.203125 L 21.125 -25.265625 L 21.125 -56.28125 L 30.59375 -56.28125 L 30.59375 0 Z M 21.625 0 "/></g></g></g><g fill="#0097b2" fill-opacity="1"><g transform="translate(250.515623, 216.749986)"><g><path d="M 28.5625 -11.921875 C 28.5625 -10.003906 28.28125 -8.238281 27.71875 -6.625 C 27.15625 -5.019531 26.320312 -3.65625 25.21875 -2.53125 C 24.125 -1.40625 22.800781 -0.519531 21.25 0.125 C 19.695312 0.769531 17.96875 1.09375 16.0625 1.09375 C 14.082031 1.09375 12.234375 0.769531 10.515625 0.125 C 8.796875 -0.519531 7.300781 -1.429688 6.03125 -2.609375 C 4.769531 -3.796875 3.769531 -5.21875 3.03125 -6.875 C 2.300781 -8.539062 1.9375 -10.390625 1.9375 -12.421875 L 1.9375 -43.859375 C 1.9375 -45.878906 2.300781 -47.722656 3.03125 -49.390625 C 3.769531 -51.054688 4.769531 -52.476562 6.03125 -53.65625 C 7.300781 -54.84375 8.796875 -55.757812 10.515625 -56.40625 C 12.234375 -57.050781 14.082031 -57.375 16.0625 -57.375 C 17.96875 -57.375 19.695312 -57.050781 21.25 -56.40625 C 22.800781 -55.757812 24.125 -54.867188 25.21875 -53.734375 C 26.320312 -52.609375 27.15625 -51.242188 27.71875 -49.640625 C 28.28125 -48.035156 28.5625 -46.273438 28.5625 -44.359375 L 28.5625 -35.828125 L 19.09375 -35.828125 L 19.09375 -44.53125 C 19.09375 -45.375 18.851562 -46.078125 18.375 -46.640625 C 17.894531 -47.203125 17.125 -47.484375 16.0625 -47.484375 C 15.039062 -47.484375 14.273438 -47.203125 13.765625 -46.640625 C 13.265625 -46.078125 13.015625 -45.375 13.015625 -44.53125 L 13.015625 -11.75 C 13.015625 -10.90625 13.265625 -10.195312 13.765625 -9.625 C 14.273438 -9.0625 15.039062 -8.78125 16.0625 -8.78125 C 17.125 -8.78125 17.894531 -9.0625 18.375 -9.625 C 18.851562 -10.195312 19.09375 -10.90625 19.09375 -11.75 L 19.09375 -20.53125 L 28.5625 -20.53125 Z M 28.5625 -11.921875 "/></g></g></g></svg>